{"title":"Anjala 2016 Movies DVDScr XviD AAC Clean Audio with Sample ☻rDX☻","uid":13533306,"size":739331896,"categoryP":"video","categoryS":"movies","magnet":"?xt=urn:btih:9952207cbbb9770b0481c609952fda9fffcd833b&amp;dn=Anjala+2016+Movies+DVDScr+XviD+AAC+Clean+Audio+with+Sample+%E2%98%BBrDX%E2%98%BB&amp;tr=udp%3A%2F%2Ftracker.leechers-paradise.org%3A6969&amp;tr=udp%3A%2F%2Fzer0day.ch%3A1337&amp;tr=udp%3A%2F%2Fopen.demonii.com%3A1337&amp;tr=udp%3A%2F%2Ftracker.coppersurfer.tk%3A6969&amp;tr=udp%3A%2F%2Fexodus.desync.com%3A6969","seeders":1,"leechers":0,"uploader":"basicssom","files":2,"time":1455422718,"description":"----------------------------------------------------------------\r\nAnjala 2016 Tamil Movies DVDScr XviD AAC Clean Audio New Source with Sample ~ ☻rDX☻\r\n\r\nSCREEN SHOTS &amp; POSTER:\r\n  \nhttp://mobileshosting.com/2016/2/Anjala/11.html  \nhttp://mobileshosting.com/2016/2/Anjala/1.html  \nhttp://mobileshosting.com/2016/2/Anjala/2.html  \nhttp://mobileshosting.com/2016/2/Anjala/3.html  \nhttp://mobileshosting.com/2016/2/Anjala/4.html  \nhttp://mobileshosting.com/2016/2/Anjala/5.html  \nhttp://mobileshosting.com/2016/2/Anjala/6.html  \nhttp://mobileshosting.com/2016/2/Anjala/7.html  \nhttp://mobileshosting.com/2016/2/Anjala/8.html  \nhttp://mobileshosting.com/2016/2/Anjala/9.html  \nhttp://mobileshosting.com/2016/2/Anjala/10.html\r\n\r\nFormat                                   : Matroska\r\nFormat version                           : Version 4 / Version 2\r\nFile size                                : 700 MiB\r\nDuration                                 : 1h 46mn\r\nOverall bit rate                         : 919 Kbps\r\nMovie name                               : Anjala 2016 Tamil Movies DVDScr XviD AAC Clean Audio New Source ☻rDX☻\r\n\r\nVideo\r\nID                                       : 1\r\nFormat                                   : AVC\r\nFormat/Info                              : Advanced Video Codec\r\nFormat profile                           :   \r\nFormat settings, CABAC                   : Yes\r\nFormat settings, ReFrames                : 4 frames\r\nCodec ID                                 : V_MPEG4/ISO/AVC\r\nDuration                                 : 1h 46mn\r\nBit rate                                 : 821 Kbps\r\nWidth                                    : 608 pixels\r\nHeight                                   : 256 pixels\r\nDisplay aspect ratio                     : 2.40:1\r\nFrame rate mode                          : Constant\r\nFrame rate                               : 25.000 fps\r\nColor space                              : YUV\r\nChroma subsampling                       : 4:2:0\r\nBit depth                                : 8 bits\r\nScan type                                : Progressive\r\nBits/(Pixel*Frame)                       : 0.211\r\nStream size                              : 613 MiB (88%)\r\nTitle                                    : ☻rDX☻\r\nWriting library                          : XviD\r\nLanguage                                 : Tamil\r\nDefault                                  : Yes\r\nForced                                   : Yes\r\n\r\nAudio\r\nID                                       : 2\r\nFormat                                   : MPEG Audio\r\nFormat version                           : Version 1\r\nFormat profile                           : Layer 3\r\nMode                                     : Joint stereo\r\nMode extension                           : MS Stereo\r\nCodec ID                                 : A_MPEG/L3\r\nCodec ID/Hint                            : MP3\r\nDuration                                 : 1h 46mn\r\nBit rate mode                            : Constant\r\nBit rate                                 : 96.0 Kbps\r\nChannel(s)                               : 2 channels\r\nSampling rate                            : 48.0 KHz\r\nCompression mode                         : Lossy\r\nStream size                              : 73.1 MiB (10%)\r\nTitle                                    : ☻rDX☻\r\nWriting library                          : LAME3.98r\r\nEncoding settings                        : -m j -V 4 -q 3 -lowpass 15.1 -b 96\r\nLanguage                                 : Tamil\r\nDefault                                  : Yes\r\nForced                                   : Yes\r\n\r\nIMDB                                      \nhttp://www.imdb.com/title/tt3369694/","torrent":{"xt":"urn:btih:9952207cbbb9770b0481c609952fda9fffcd833b","amp;dn":"Anjala+2016+Movies+DVDScr+XviD+AAC+Clean+Audio+with+Sample+%E2%98%BBrDX%E2%98%BB","amp;tr":["udp%3A%2F%2Ftracker.leechers-paradise.org%3A6969","udp%3A%2F%2Fzer0day.ch%3A1337","udp%3A%2F%2Fopen.demonii.com%3A1337","udp%3A%2F%2Ftracker.coppersurfer.tk%3A6969","udp%3A%2F%2Fexodus.desync.com%3A6969"],"infoHash":"9952207cbbb9770b0481c609952fda9fffcd833b","infoHashBuffer":{"type":"Buffer","data":[153,82,32,124,187,185,119,11,4,129,198,9,149,47,218,159,255,205,131,59]},"announce":[],"urlList":[]}}